<svg width="52" height="52" xmlns="http://www.w3.org/2000/svg" xmlns:xlink="http://www.w3.org/1999/xlink" xml:space="preserve" overflow="hidden"><g transform="translate(-364 -271)"><path d="M372.532 319.334 372.532 280.839C372.517 278.671 374.259 276.899 376.427 276.877L396.2 276.877C398.369 276.899 400.11 278.671 400.095 280.839L400.095 319.334" stroke="#231F20" stroke-width="2.02177" stroke-linecap="round" stroke-linejoin="round" fill="none"/><path d="M386.132 312.783C388.879 312.38 391.202 310.54 392.224 307.958 393.396 304.917 393.589 301.585 392.777 298.429 389.586 298.683 386.526 299.811 383.935 301.691 380.794 304.09 380.309 309.171 382.236 311.462" stroke="#231F20" stroke-width="2.02177" stroke-linecap="round" stroke-miterlimit="10" fill="none"/><path d="M388.989 303.766C386.637 308.036 383.141 311.564 378.894 313.956" stroke="#231F20" stroke-width="2.02177" stroke-linecap="round" stroke-linejoin="round" fill="none"/><path d="M368.987 319.846 403.64 319.846" stroke="#231F20" stroke-width="2.02177" stroke-linecap="round" stroke-linejoin="round" fill="none"/><path d="M377.842 282.147 394.785 282.147 394.785 291.326 377.842 291.326Z" stroke="#231F20" stroke-width="2.02177" stroke-linecap="round" stroke-linejoin="round" fill="none"/><path d="M386.374 285.072 386.374 288.401" stroke="#231F20" stroke-width="2.02177" stroke-linecap="round" stroke-linejoin="round" fill="none"/><path d="M382.196 285.018 382.196 288.576" stroke="#231F20" stroke-width="2.02177" stroke-linecap="round" stroke-linejoin="round" fill="none"/><path d="M390.553 285.072 390.553 288.401" stroke="#231F20" stroke-width="2.02177" stroke-linecap="round" stroke-linejoin="round" fill="none"/><path d="M400.473 291.353 403.168 291.353C404.456 291.36 405.494 292.41 405.487 293.698 405.487 293.698 405.487 293.698 405.487 293.698L405.487 310.694C405.487 311.981 406.518 313.031 407.805 313.053L408.749 313.053C410.039 313.038 411.074 311.984 411.067 310.694L411.067 282.389C411.038 280.587 410.183 278.898 408.749 277.807L403.209 274.154" stroke="#231F20" stroke-width="2.02177" stroke-linecap="round" stroke-linejoin="round" fill="none"/><path d="M407.576 277.847 407.576 285.382 410.878 288.347" stroke="#231F20" stroke-width="2.02177" stroke-linecap="round" stroke-linejoin="round" fill="none"/></g></svg>