<svg width="52" height="52" xmlns="http://www.w3.org/2000/svg" xmlns:xlink="http://www.w3.org/1999/xlink" xml:space="preserve" overflow="hidden"><g transform="translate(-619 -271)"><path d="M655.702 289.87C654.213 289.87 653.006 288.663 653.006 287.174L653.006 281.513C653.006 280.024 654.213 278.818 655.702 278.818L661.632 278.818 661.632 289.87Z" stroke="#231F20" stroke-width="2.02177" stroke-linecap="round" stroke-linejoin="round" fill="none"/><path d="M662.374 281.675 666.835 281.702" stroke="#231F20" stroke-width="2.02177" stroke-linecap="round" stroke-linejoin="round" fill="none"/><path d="M662.347 287.484 666.808 287.511" stroke="#231F20" stroke-width="2.02177" stroke-linecap="round" stroke-linejoin="round" fill="none"/><path d="M651.941 284.654 639.069 284.654C639.069 284.654 628.934 284.168 624.54 288.697 621.224 292.013 620.011 297.566 629.055 305.289" stroke="#231F20" stroke-width="2.02177" stroke-linecap="round" stroke-linejoin="round" fill="none"/><path d="M665.676 311.435C666.004 311.38 666.314 311.246 666.579 311.045 667.693 309.981 668.165 308.408 667.819 306.907 667.442 303.631 657.481 300.329 657.481 300.329L652.561 294.749C646.227 292.781 638.22 295.005 638.22 295.005 630.807 296.677 629.877 301.583 629.877 301.583L629.877 305.532C628.111 309.238 629.877 310.923 630.942 311.516" stroke="#231F20" stroke-width="2.02177" stroke-linecap="round" stroke-linejoin="round" fill="none"/><path d="M640.768 312.109 656.147 312.204" stroke="#231F20" stroke-width="2.02177" stroke-linecap="round" stroke-linejoin="round" fill="none"/><path d="M635.322 300.747 658.91 300.882" stroke="#231F20" stroke-width="2.02177" stroke-linecap="round" stroke-linejoin="round" fill="none"/><path d="M644.097 300.734 644.137 295.1" stroke="#231F20" stroke-width="2.02177" stroke-linecap="round" stroke-linejoin="round" fill="none"/><path d="M662.657 312.096C662.649 313.83 661.237 315.23 659.503 315.223 657.768 315.215 656.368 313.803 656.376 312.069 656.383 310.335 657.795 308.935 659.53 308.942 661.257 308.942 662.657 310.342 662.657 312.069 662.657 312.078 662.657 312.087 662.657 312.096Z" stroke="#231F20" stroke-width="2.02177" stroke-linecap="round" stroke-miterlimit="10" fill="none"/><path d="M640.323 311.988C640.323 313.722 638.917 315.129 637.182 315.129 635.448 315.129 634.042 313.722 634.042 311.988 634.042 310.254 635.448 308.848 637.182 308.848 637.187 308.848 637.192 308.848 637.196 308.848 638.922 308.862 640.316 310.262 640.323 311.988Z" stroke="#231F20" stroke-width="2.02177" stroke-linecap="round" stroke-miterlimit="10" fill="none"/></g></svg>