<svg width="52" height="52" xmlns="http://www.w3.org/2000/svg" xmlns:xlink="http://www.w3.org/1999/xlink" xml:space="preserve" overflow="hidden"><g transform="translate(-887 -171)"><path d="M890.154 199.696C890.154 199.696 887.93 182.079 907.029 177.079" stroke="#231F20" stroke-width="2.02177" stroke-linecap="round" stroke-linejoin="round" fill="none"/><path d="M898.888 180.435C898.888 180.435 898.106 170.299 913.081 176.391 911.369 178.076 905.519 183.899 898.888 180.435Z" stroke="#231F20" stroke-width="2.02177" stroke-linecap="round" stroke-linejoin="round" fill="none"/><path d="M920.696 178.629C920.696 178.629 936.668 185.597 931.479 204.844" stroke="#231F20" stroke-width="2.02177" stroke-linecap="round" stroke-linejoin="round" fill="none"/><path d="M932.679 195.922C932.679 195.922 941.857 200.653 929.336 210.33 928.689 207.958 926.465 199.83 932.679 195.922Z" stroke="#231F20" stroke-width="2.02177" stroke-linecap="round" stroke-linejoin="round" fill="none"/><path d="M923.635 215.843C923.635 215.843 909.469 226.006 895.343 212.783" stroke="#231F20" stroke-width="2.02177" stroke-linecap="round" stroke-linejoin="round" fill="none"/><path d="M902.514 217.784C902.514 217.784 893.888 223.728 891.839 207.81 894.211 208.376 902.298 210.33 902.514 217.784Z" stroke="#231F20" stroke-width="2.02177" stroke-linecap="round" stroke-linejoin="round" fill="none"/><path d="M912.259 194.978 918.594 187.309 910.466 187.309 905.924 199.372 909.536 199.372 906.018 209.225 918.135 194.992 912.259 194.992 912.259 194.978Z" stroke="#231F20" stroke-width="2.02177" stroke-linecap="round" stroke-linejoin="round" fill="none"/></g></svg>