<svg width="52" height="52" xmlns="http://www.w3.org/2000/svg" xmlns:xlink="http://www.w3.org/1999/xlink" xml:space="preserve" overflow="hidden"><g transform="translate(-1080 -202)"><path d="M1096.54 215.762C1096.54 215.762 1095.22 202.094 1112.51 205.68 1110.15 218.457 1096.54 215.762 1096.54 215.762Z" stroke="#231F20" stroke-width="2.02177" stroke-linecap="round" stroke-linejoin="round" fill="none"/><path d="M1107.2 208.497C1093.96 211.085 1095.19 223.229 1095.19 223.229" stroke="#231F20" stroke-width="2.02177" stroke-linecap="round" stroke-linejoin="round" fill="none"/><path d="M1093.56 216.058C1093.56 216.058 1086.01 216.759 1086.01 208.51 1094.35 208.241 1093.56 216.058 1093.56 216.058Z" stroke="#231F20" stroke-width="2.02177" stroke-linecap="round" stroke-linejoin="round" fill="none"/><path d="M1116.66 232.219 1116.66 227.003 1107.12 232.219 1107.12 227.003 1097.79 232.097 1097.79 223.93 1092.74 223.93 1092.74 234.861 1085.8 238.661 1085.8 250.927 1100.34 250.927 1107.12 250.927 1109.88 250.927 1116.66 250.927 1126.2 250.927 1126.2 227.003 1116.66 232.219Z" stroke="#231F20" stroke-width="2.02177" stroke-linecap="round" stroke-linejoin="round" fill="none"/><path d="M1107.02 236.761 1107.02 243.055" stroke="#231F20" stroke-width="2.02177" stroke-linecap="round" stroke-linejoin="round" fill="none"/><path d="M1112.95 236.761 1112.95 243.055" stroke="#231F20" stroke-width="2.02177" stroke-linecap="round" stroke-linejoin="round" fill="none"/><path d="M1118.48 236.761 1118.48 243.055" stroke="#231F20" stroke-width="2.02177" stroke-linecap="round" stroke-linejoin="round" fill="none"/></g></svg>